<svg width="256" height="256" viewBox="0 0 256 256" xmlns="http://www.w3.org/2000/svg" fill="none">
  <defs>
    <linearGradient id="graphGrad" x1="48" y1="40" x2="208" y2="208" gradientUnits="userSpaceOnUse">
      <stop offset="0%" stop-color="#2563EB"/>
      <stop offset="100%" stop-color="#14B8A6"/>
    </linearGradient>

    <linearGradient id="clawGrad" x1="96" y1="44" x2="160" y2="184" gradientUnits="userSpaceOnUse">
      <stop offset="0%" stop-color="#2563EB"/>
      <stop offset="55%" stop-color="#06B6D4"/>
      <stop offset="100%" stop-color="#22C55E"/>
    </linearGradient>

    <radialGradient id="coreGlow" cx="50%" cy="50%" r="60%">
      <stop offset="0%" stop-color="#ECFEFF"/>
      <stop offset="55%" stop-color="#A5F3FC"/>
      <stop offset="100%" stop-color="#22D3EE"/>
    </radialGradient>

    <filter id="shadow" x="-20%" y="-20%" width="140%" height="140%">
      <feDropShadow dx="0" dy="6" stdDeviation="8" flood-color="#0F172A" flood-opacity="0.12"/>
    </filter>
  </defs>

  <g filter="url(#shadow)" transform="rotate(90 128 128)">
    <!-- Graph skeleton -->
    <g stroke="url(#graphGrad)" stroke-width="7" stroke-linecap="round" stroke-linejoin="round" opacity="0.95">
      <line x1="128" y1="52" x2="74" y2="174"/>
      <line x1="128" y1="52" x2="182" y2="174"/>
      <line x1="74" y1="174" x2="128" y2="146"/>
      <line x1="128" y1="146" x2="182" y2="174"/>
      <line x1="74" y1="174" x2="182" y2="174"/>
    </g>

    <!-- Nodes -->
    <g fill="white" stroke="url(#graphGrad)" stroke-width="6">
      <circle cx="128" cy="52" r="14"/>
      <circle cx="74" cy="174" r="14"/>
      <circle cx="182" cy="174" r="14"/>
      <circle cx="128" cy="146" r="18"/>
    </g>

    <!-- Node glow -->
    <g fill="url(#coreGlow)">
      <circle cx="128" cy="52" r="8"/>
      <circle cx="74" cy="174" r="8"/>
      <circle cx="182" cy="174" r="8"/>
      <circle cx="128" cy="146" r="11"/>
    </g>

    <!-- Claw stem -->
    <rect x="118" y="58" width="20" height="54" rx="10" fill="url(#clawGrad)"/>

    <!-- Claw pincers -->
    <path
      d="M120 108
         C101 118 90 140 94 164
         C96 175 105 181 116 178
         C110 165 111 139 120 108Z"
      fill="url(#clawGrad)"
      stroke="#0F3B8F"
      stroke-opacity="0.18"
      stroke-width="2"
    />
    <path
      d="M136 108
         C155 118 166 140 162 164
         C160 175 151 181 140 178
         C146 165 145 139 136 108Z"
      fill="url(#clawGrad)"
      stroke="#0F3B8F"
      stroke-opacity="0.18"
      stroke-width="2"
    />

    <!-- Claw joint -->
    <circle cx="128" cy="86" r="16" fill="white" stroke="url(#clawGrad)" stroke-width="6"/>
    <circle cx="128" cy="86" r="8" fill="url(#coreGlow)"/>
  </g>
</svg>